<?xml version="1.0" encoding="UTF-8"?>
<svg version="1.1" xmlns="http://www.w3.org/2000/svg" width="1024" height="1024">
<path d="M0 0 C337.92 0 675.84 0 1024 0 C1024 337.92 1024 675.84 1024 1024 C686.08 1024 348.16 1024 0 1024 C0 686.08 0 348.16 0 0 Z " fill="#001235" transform="translate(0,0)"/>
<path d="M0 0 C3.97279134 3.75472116 5.70727164 8.54620556 7.6953125 13.5234375 C8.40905576 15.26469924 9.12292875 17.00590781 9.83691406 18.74707031 C10.39529968 20.12167419 10.39529968 20.12167419 10.96496582 21.52404785 C17.37101419 37.2678403 24.06768094 52.84506875 31.25 68.25 C31.62044434 69.04679169 31.99088867 69.84358337 32.37255859 70.66452026 C35.61603254 77.64056203 38.87658882 84.60854435 42.14746094 91.57177734 C43.84183666 95.18205961 45.5210433 98.79906404 47.19030762 102.42102051 C47.80374625 103.74443604 48.42279516 105.06526843 49.04797363 106.38317871 C55.28237967 119.52799012 55.28237967 119.52799012 54 126 C52.27329464 129.60192409 50.1269058 132.83213841 47.875 136.125 C46.57898909 138.0882526 45.28342845 140.0518025 43.98828125 142.015625 C43.3226416 143.01142578 42.65700195 144.00722656 41.97119141 145.03320312 C38.93401835 149.60438556 35.99898415 154.23875541 33.0625 158.875 C32.48798096 159.77766602 31.91346191 160.68033203 31.3215332 161.61035156 C25.12339117 171.35188666 19.01280795 181.14791293 12.90429688 190.94580078 C9.70958414 196.06962851 6.51163294 201.19143114 3.3125 206.3125 C2.68609619 207.31522949 2.05969238 208.31795898 1.41430664 209.35107422 C-2.84466764 216.16387076 -7.12664224 222.96171977 -11.42456055 229.75 C-16.29329278 237.4468748 -21.11287882 245.17436618 -25.92578125 252.90625 C-27.10790573 254.80220553 -28.29879339 256.6927365 -29.5 258.57666016 C-31.12435771 261.12452056 -31.12435771 261.12452056 -32.75 264.44921875 C-38.04972947 270.45741901 -48.61544586 271.85224118 -56.1875 273.86328125 C-57.1679982 274.12840012 -58.1484964 274.39351898 -59.15870667 274.66667175 C-62.43801028 275.55285476 -65.71896694 276.43274361 -69 277.3125 C-73.88509912 278.62787626 -78.76906229 279.9474251 -83.65234375 281.26953125 C-84.30828962 281.44695484 -84.9642355 281.62437843 -85.64005852 281.8071785 C-97.12313704 284.91579404 -108.58023732 288.11352408 -120.03181839 291.33605003 C-122.87226078 292.13484988 -125.71317868 292.93193341 -128.55429077 293.72834778 C-129.96063561 294.12257761 -129.96063561 294.12257761 -131.39539146 294.52477169 C-133.28865265 295.05542527 -135.18193394 295.58600711 -137.07523537 296.11651707 C-141.78811792 297.4379614 -146.49953765 298.76426745 -151.20825195 300.10049438 C-155.69075183 301.37248347 -160.1763473 302.63291771 -164.66441154 303.88512611 C-166.33390598 304.35328841 -168.00218078 304.82582454 -169.66913033 305.30296898 C-171.96721555 305.96019809 -174.26910142 306.60195491 -176.57250977 307.24023438 C-177.24075775 307.43536275 -177.90900574 307.63049112 -178.59750366 307.83153248 C-182.72072922 308.95233565 -185.87242178 309.17358323 -190 308 C-191.69848633 305.7409668 -191.69848633 305.7409668 -193.01953125 302.76171875 C-193.51533691 301.67036621 -194.01114258 300.57901367 -194.52197266 299.45458984 C-195.00972168 298.3145752 -195.4974707 297.17456055 -196 296 C-196.46841309 294.94119629 -196.93682617 293.88239258 -197.41943359 292.79150391 C-198.87038115 289.47656533 -200.28255543 286.14717864 -201.6875 282.8125 C-202.74395652 280.32330795 -203.80353658 277.83544989 -204.86328125 275.34765625 C-205.26033264 274.41438004 -205.26033264 274.41438004 -205.66540527 273.46224976 C-208.18914375 267.53767183 -210.77324263 261.64064429 -213.375 255.75 C-217.68511419 245.98716012 -221.97469041 236.21561801 -226.25 226.4375 C-227.52861494 223.51358621 -227.52861494 223.51358621 -228.80783081 220.5899353 C-229.36074642 219.32426124 -229.91197007 218.05784661 -230.4614563 216.79067993 C-231.92777854 213.4154018 -233.428317 210.06082284 -234.97851562 206.72314453 C-235.46550934 205.65737938 -235.46550934 205.65737938 -235.96234131 204.57008362 C-236.58241329 203.21467947 -237.21249761 201.86379133 -237.85455322 200.5186615 C-239.82726052 196.16830529 -240.48772993 192.75336505 -240 188 C-239.01635742 185.51000977 -239.01635742 185.51000977 -237.60546875 183.19140625 C-237.07131348 182.29526611 -236.5371582 181.39912598 -235.98681641 180.47583008 C-235.39304199 179.51443115 -234.79926758 178.55303223 -234.1875 177.5625 C-233.57310059 176.53987061 -232.95870117 175.51724121 -232.32568359 174.46362305 C-230.96896322 172.20582734 -229.60725446 169.9517847 -228.23876953 167.70117188 C-225.83587414 163.74051628 -223.47648287 159.75466342 -221.12109375 155.765625 C-220.28429637 154.34950714 -219.44746367 152.93341014 -218.6105957 151.51733398 C-217.99119614 150.46919022 -217.99119614 150.46919022 -217.35928345 149.39987183 C-211.91203291 140.18769506 -206.41697063 131.01117916 -200.79150391 121.90649414 C-198.3699578 117.97783424 -195.99279045 114.02370919 -193.625 110.0625 C-193.13660645 109.24749023 -192.64821289 108.43248047 -192.14501953 107.59277344 C-189.71500918 103.5375591 -187.28740957 99.48090567 -184.86132812 95.42333984 C-180.62009556 88.33087246 -176.37204312 81.24263867 -172.10641479 74.16481018 C-170.00253304 70.6725604 -167.91414346 67.1716352 -165.8359375 63.6640625 C-164.97479141 62.23387306 -164.11290329 60.80412992 -163.25 59.375 C-162.89276855 58.76108398 -162.53553711 58.14716797 -162.16748047 57.51464844 C-158.067211 50.81149749 -152.10139108 48.40676472 -144.93701172 46.19287109 C-143.74364637 45.81078428 -143.74364637 45.81078428 -142.52617264 45.42097855 C-140.78960425 44.86578235 -139.05171551 44.31470298 -137.31268692 43.76726151 C-132.47245033 42.24249188 -127.64276315 40.6848278 -122.81152344 39.13183594 C-121.78038233 38.80123735 -120.74924122 38.47063877 -119.68685341 38.13002205 C-108.57858332 34.56086605 -97.51725204 30.85422365 -86.45807648 27.1362381 C-83.00387997 25.97524073 -79.54891437 24.81656178 -76.09368896 23.65863037 C-66.68610508 20.50559533 -57.27905099 17.35103253 -47.87597656 14.18457031 C-42.01251205 12.21034534 -36.14665921 10.24337198 -30.27914047 8.28123093 C-28.0718087 7.54155228 -25.8653842 6.7991602 -23.65991592 6.05394363 C-20.61684429 5.02598278 -17.57082059 4.00728528 -14.52392578 2.99072266 C-13.62762955 2.68544144 -12.73133331 2.38016022 -11.80787659 2.06562805 C-3.81549316 -0.58103899 -3.81549316 -0.58103899 0 0 Z " fill="#FEFEFE" transform="translate(574,255)"/>
<path d="M0 0 C5.25542155 10.25811954 9.83123521 20.78427351 14.40429688 31.35986328 C15.38908571 33.62991272 16.38036064 35.8971588 17.37792969 38.16162109 C18.82648368 41.45055107 20.25515922 44.74748025 21.6796875 48.046875 C22.12851288 49.05635193 22.57733826 50.06582886 23.0397644 51.105896 C26.82379482 59.97975031 26.82379482 59.97975031 25 65 C23.59570312 67.80712891 23.59570312 67.80712891 21.78125 70.7265625 C21.10457275 71.82709961 20.42789551 72.92763672 19.73071289 74.06152344 C18.98725628 75.24942054 18.24368225 76.43724415 17.5 77.625 C16.73393323 78.86428421 15.96889469 80.10420455 15.20483398 81.34472656 C13.61162547 83.92983205 12.01399016 86.51212457 10.41357422 89.09277344 C6.94788604 94.69104539 3.54883622 100.32950221 0.14346313 105.96456909 C-1.62172405 108.88013546 -3.39736413 111.78932136 -5.171875 114.69921875 C-7.50049714 118.52015109 -9.80604955 122.35223836 -12.078125 126.20703125 C-12.94779776 127.6589254 -13.81757816 129.11075508 -14.6875 130.5625 C-15.04900146 131.19317383 -15.41050293 131.82384766 -15.78295898 132.47363281 C-19.88836196 139.2463445 -26.76478284 140.70378246 -33.9375 142.8203125 C-35.23588554 143.21060387 -35.23588554 143.21060387 -36.5605011 143.60877991 C-39.37216024 144.45264907 -42.18603715 145.28884848 -45 146.125 C-46.93920103 146.70561928 -48.87824638 147.28675877 -50.81713867 147.8684082 C-55.64365595 149.31513242 -60.47190576 150.75597189 -65.30072021 152.19500732 C-71.33896057 153.99576147 -77.37405461 155.80702267 -83.40942383 157.61737061 C-85.2679869 158.17416463 -87.12715054 158.72895275 -88.98632812 159.28369141 C-90.65791992 159.78328369 -90.65791992 159.78328369 -92.36328125 160.29296875 C-93.31501221 160.5768042 -94.26674316 160.86063965 -95.24731445 161.15307617 C-97.19490203 161.75229403 -99.12505718 162.40959635 -101.03979492 163.10668945 C-103.88607298 163.96561988 -106.05249233 164.1733828 -109 164 C-114.6399688 153.38692115 -119.28980261 142.33692671 -123.99755859 131.28881836 C-125.38373343 128.04204408 -126.78348123 124.80133089 -128.18359375 121.56054688 C-129.06854364 119.48994013 -129.95268761 117.41898872 -130.8359375 115.34765625 C-131.25459076 114.3830397 -131.67324402 113.41842316 -132.10458374 112.42457581 C-132.48563263 111.52271042 -132.86668152 110.62084503 -133.25927734 109.69165039 C-133.59647797 108.90399796 -133.93367859 108.11634552 -134.28109741 107.30482483 C-135.09593794 104.69241986 -135.25682172 102.72239605 -135 100 C-133.54571431 97.39118954 -132.06092613 95.01302438 -130.375 92.5625 C-129.35948922 91.04115683 -128.34522741 89.51897942 -127.33203125 87.99609375 C-126.7901416 87.18769043 -126.24825195 86.37928711 -125.68994141 85.54638672 C-122.74862947 81.11444746 -119.90970208 76.6177423 -117.0625 72.125 C-116.47299561 71.1976001 -115.88349121 70.2702002 -115.27612305 69.31469727 C-111.90881038 64.01649092 -108.55174213 58.71189564 -105.203125 53.40185547 C-104.20448925 51.81928805 -103.20452105 50.23756053 -102.203125 48.65673828 C-99.92211024 45.05566328 -97.65598658 41.44769633 -95.4296875 37.8125 C-94.64063436 36.54166085 -93.85157241 35.27082718 -93.0625 34 C-92.05896484 32.3603125 -92.05896484 32.3603125 -91.03515625 30.6875 C-86.69646131 24.95809094 -80.15289747 23.58415953 -73.55859375 21.5234375 C-72.53043045 21.19642853 -71.50226715 20.86941956 -70.44294739 20.53250122 C-67.10971565 19.47383629 -63.77373778 18.4241494 -60.4375 17.375 C-58.15640329 16.65353913 -55.87547896 15.93153298 -53.59472656 15.20898438 C-50.20267274 14.13439862 -46.81049756 13.06022378 -43.41751099 11.98858643 C-37.15813273 10.00991222 -30.90933354 8.00386631 -24.67578125 5.9453125 C-23.37508381 5.51773349 -22.07438407 5.09016149 -20.77368164 4.66259766 C-18.49593292 3.91108103 -16.22021637 3.15336428 -13.94702148 2.38818359 C-9.17151036 0.82191875 -5.10042442 -0.48575471 0 0 Z " fill="#087FE7" transform="translate(534,333)"/>
<path d="M0 0 C7.3609506 0.52898427 13.78407469 2.79079292 20.6875 5.3125 C21.80189453 5.70373047 22.91628906 6.09496094 24.06445312 6.49804688 C25.14017578 6.88669922 26.21589844 7.27535156 27.32421875 7.67578125 C28.29447998 8.02552002 29.26474121 8.37525879 30.2644043 8.7355957 C45.70128449 15.87058923 52.25432013 42.26066876 59 57 C59.88268308 58.92453853 60.76548625 60.84902199 61.6484375 62.7734375 C62.92164047 65.54982246 64.19394756 68.32660374 65.46386719 71.10449219 C68.49917373 77.74108396 71.55404395 84.36840493 74.6171875 90.9921875 C75.02320694 91.87047714 75.42922638 92.74876678 75.84754944 93.65367126 C77.49271695 97.2122884 79.13791561 100.77088795 80.78573608 104.32827759 C81.94289509 106.82641627 83.09851831 109.32526057 84.25390625 111.82421875 C84.60238617 112.575289 84.95086609 113.32635925 85.30990601 114.10018921 C91.08906018 126.61133751 91.08906018 126.61133751 90 133 C88.74572652 135.99881436 87.04844148 138.61256663 85.25 141.3125 C84.75411377 142.08883789 84.25822754 142.86517578 83.74731445 143.66503906 C82.70092426 145.30103967 81.64714934 146.93233806 80.58642578 148.55908203 C78.57107787 151.65995129 76.60889507 154.79259449 74.64550781 157.92651367 C69.21238293 166.58476041 63.69911909 175.1931437 58.20727539 183.81420898 C54.49855526 189.63783173 50.80586275 195.47123954 47.125 201.3125 C41.81269208 209.73901201 36.44536754 218.12980504 31.07177734 226.51733398 C22.36309769 240.1118009 13.69186631 253.73004057 5.0625 267.375 C4.58772217 268.12458984 4.11294434 268.87417969 3.6237793 269.64648438 C0.75007609 274.19392488 -2.08877241 278.76123782 -4.90625 283.34375 C-5.90990601 284.96917725 -5.90990601 284.96917725 -6.93383789 286.62744141 C-8.24090271 288.7459471 -9.54244288 290.86787427 -10.83764648 292.99365234 C-18.68118625 305.68387288 -26.82280638 309.19892607 -40.96923828 312.68554688 C-42.38128288 313.04254417 -42.38128288 313.04254417 -43.82185364 313.40675354 C-46.90305568 314.18402042 -49.98661503 314.95144916 -53.0703125 315.71875 C-55.2374466 316.26335187 -57.40442607 316.8085694 -59.57125854 317.35437012 C-65.26152971 318.78592737 -70.95385857 320.20912738 -76.64666748 321.6305542 C-82.395927 323.06764209 -88.14318636 324.51268168 -93.890625 325.95703125 C-103.28638673 328.31705712 -112.68239232 330.67613337 -122.08234406 333.01942635 C-126.31063111 334.07384655 -130.536855 335.13462715 -134.75717163 336.22055054 C-135.48670988 336.40696358 -136.21624813 336.59337662 -136.9678936 336.78543854 C-138.87850177 337.27433322 -140.78799862 337.76756553 -142.6973877 338.26119995 C-154.00916297 340.79166352 -160.90298982 338.32554071 -170.625 332.375 C-171.67945313 331.75753906 -172.73390625 331.14007812 -173.8203125 330.50390625 C-176.89674009 328.6953628 -179.95006035 326.85278579 -183 325 C-184.9239092 323.84540389 -186.84834237 322.69168018 -188.7734375 321.5390625 C-190.18240782 320.69290172 -191.59130984 319.84662711 -193 319 C-192 317 -192 317 -189.96046448 316.26405334 C-189.05900192 316.03519943 -188.15753937 315.80634552 -187.22875977 315.57055664 C-185.68804054 315.17294632 -185.68804054 315.17294632 -184.11619568 314.76730347 C-182.98601517 314.48444489 -181.85583466 314.2015863 -180.69140625 313.91015625 C-179.51929092 313.60989532 -178.3471756 313.3096344 -177.13954163 313.00027466 C-174.60642156 312.35239802 -172.07275801 311.70748229 -169.53765869 311.06747437 C-165.54622056 310.05964373 -161.55777468 309.04033049 -157.56982422 308.01879883 C-152.87527978 306.81691606 -148.1802178 305.61711059 -143.484272 304.42071438 C-120.39495837 298.5376052 -97.33525523 292.5282857 -74.36053467 286.21109009 C-72.81743976 285.78710307 -71.2738781 285.36481016 -69.72979736 284.94442749 C-65.13328025 283.69058178 -60.56077643 282.37853618 -56 281 C-55.00564941 280.70810791 -54.01129883 280.41621582 -52.98681641 280.11547852 C-46.37378057 277.88478892 -43.68945745 274.84020811 -40.375 268.8125 C-39.3614355 267.09513642 -38.34569505 265.37905575 -37.328125 263.6640625 C-36.52858398 262.28976074 -36.52858398 262.28976074 -35.71289062 260.88769531 C-32.65545663 255.73328691 -29.37601587 250.72113031 -26.125 245.6875 C-24.75428556 243.55007065 -23.38449313 241.41204975 -22.015625 239.2734375 C-21.00725586 237.69900879 -21.00725586 237.69900879 -19.97851562 236.09277344 C-16.93645324 231.33748638 -13.90467882 226.57568349 -10.875 221.8125 C-10.30467041 220.91611816 -9.73434082 220.01973633 -9.14672852 219.09619141 C-6.27532736 214.58195285 -3.40718907 210.06567312 -0.54296875 205.546875 C6.71501759 194.10492096 14.06430334 182.72676077 21.48046875 171.38671875 C24.93062091 166.11094216 28.35679293 160.82002259 31.77563477 155.52392578 C34.49748321 151.31157751 37.23305516 147.10843592 39.9765625 142.91015625 C40.66298828 141.85957031 41.34941406 140.80898438 42.05664062 139.7265625 C43.4163735 137.64651788 44.77702387 135.56707268 46.13867188 133.48828125 C46.75548828 132.5446875 47.37230469 131.60109375 48.0078125 130.62890625 C48.56098145 129.78400635 49.11415039 128.93910645 49.68408203 128.06860352 C52.07823777 124.30502623 52.70442452 121.41010109 52 117 C50.51391598 112.76501684 48.59633667 108.74620369 46.6875 104.6875 C46.10708124 103.42715681 45.52810646 102.16614782 44.95043945 100.90454102 C43.67460241 98.12178665 42.39207944 95.34224192 41.10546875 92.56445312 C37.65562208 85.10249645 34.28177811 77.6058636 30.89715576 70.11416626 C29.68469961 67.43130343 28.47069931 64.74914401 27.25634766 62.06713867 C22.17291063 50.83589413 17.11476379 39.59363912 12.10049438 28.33132935 C11.41863095 26.79986804 10.73617451 25.26867061 10.05307007 23.73776245 C6.5503733 15.88420725 3.09525888 8.02572774 0 0 Z " fill="#0883E8" transform="translate(595,259)"/>
<path d="M0 0 C12.21808215 8.94891963 19.68160081 19.7698825 23.48046875 34.38671875 C25.24858474 46.15731949 24.58759513 58.13305045 19.890625 69.1171875 C19.48972656 70.05820312 19.08882813 70.99921875 18.67578125 71.96875 C12.2176258 85.25944673 0.62737789 94.5956635 -13.171875 99.4296875 C-29.3840205 103.96375404 -46.31590891 103.07313936 -61.26171875 94.90625 C-74.91019477 86.33148728 -84.13521705 74.5878964 -88.421875 58.9296875 C-91.1362457 44.36604472 -89.20993079 28.68008419 -81.109375 16.1171875 C-78.31395641 12.56278337 -75.29986671 9.31847613 -72.109375 6.1171875 C-71.48160156 5.46621094 -70.85382813 4.81523438 -70.20703125 4.14453125 C-51.69897417 -13.6592023 -20.77059541 -12.93996987 0 0 Z " fill="#FDFDFD" transform="translate(306.109375,633.8828125)"/>
<path d="M0 0 C1.94609514 1.56485555 3.39170656 3.07004787 5 5 C5.144375 3.865625 5.28875 2.73125 5.4375 1.5625 C6 -2 6 -2 7 -3 C13.93 -3 20.86 -3 28 -3 C28 22.41 28 47.82 28 74 C21.07 74 14.14 74 7 74 C6.505 70.04 6.505 70.04 6 66 C5.195625 66.7425 4.39125 67.485 3.5625 68.25 C-4.88810386 75.08447455 -13.3921049 75.98803845 -23.99511719 75.22314453 C-32.59567479 74.26589786 -39.98945052 70.12395608 -46 64 C-54.82503624 52.80559605 -57.08256587 42.08860377 -56 28 C-54.4993118 18.31988513 -49.24062909 9.34496311 -41.75 3.0625 C-29.86301491 -5.2484005 -12.86362559 -7.87928534 0 0 Z " fill="#FDFDFD" transform="translate(475,660)"/>
<path d="M0 0 C6.93 0 13.86 0 21 0 C21.33 19.47 21.66 38.94 22 59 C26.16978852 54.83021148 30.07402317 50.82702003 33.89453125 46.39453125 C36.67103996 43.23683211 39.52018456 40.14935606 42.375 37.0625 C42.9114917 36.48226074 43.4479834 35.90202148 44.00073242 35.30419922 C48.90965819 30.00410204 48.90965819 30.00410204 51.50024414 29.88647461 C52.58426514 29.89171143 53.66828613 29.89694824 54.78515625 29.90234375 C55.95498047 29.90556641 57.12480469 29.90878906 58.33007812 29.91210938 C59.56177734 29.92048828 60.79347656 29.92886719 62.0625 29.9375 C63.91584961 29.94426758 63.91584961 29.94426758 65.80664062 29.95117188 C68.87114117 29.96300392 71.93554721 29.97948827 75 30 C73.57567584 32.97816718 72.22096735 34.97931682 69.8125 37.25 C67.36401744 39.62823921 65.03928947 42.03799459 62.8125 44.625 C57.6995183 50.55887326 52.32844937 56.26032383 47 62 C48.63869932 67.25010038 51.92284541 71.22947764 55.1875 75.5625 C55.7973877 76.38153809 56.40727539 77.20057617 57.03564453 78.04443359 C60.42874162 82.59471906 63.84719664 87.12593949 67.26171875 91.66015625 C67.94919189 92.574021 68.63666504 93.48788574 69.3449707 94.42944336 C70.68571815 96.20974312 72.02925501 97.98794599 73.37573242 99.76391602 C73.9813501 100.56627686 74.58696777 101.3686377 75.2109375 102.1953125 C75.75024902 102.90703613 76.28956055 103.61875977 76.84521484 104.35205078 C78 106 78 106 78 107 C55.45479492 109.85413222 55.45479492 109.85413222 48.44384766 105.36230469 C44.23201792 101.25699423 41.22414361 96.45317545 38.37255859 91.33984375 C36.54153746 88.21844451 34.36661075 85.43617959 32.11254883 82.61132812 C31 81 31 81 31 79 C29.85073734 79.95421808 28.70569459 80.91352045 27.5625 81.875 C26.92441406 82.40867187 26.28632813 82.94234375 25.62890625 83.4921875 C22.90590168 86.01276247 22.84198265 87.99524873 22.68359375 91.5703125 C22.64548584 92.37742676 22.60737793 93.18454102 22.56811523 94.01611328 C22.50346069 95.55501221 22.50346069 95.55501221 22.4375 97.125 C22.293125 100.38375 22.14875 103.6425 22 107 C14.74 107 7.48 107 0 107 C0 71.69 0 36.38 0 0 Z " fill="#FDFDFD" transform="translate(340,627)"/>
<path d="M0 0 C22.11 0 44.22 0 67 0 C67 6.6 67 13.2 67 20 C52.81 20 38.62 20 24 20 C24 28.91 24 37.82 24 47 C36.21 47 48.42 47 61 47 C61 53.6 61 60.2 61 67 C48.79 67 36.58 67 24 67 C24 80.2 24 93.4 24 107 C16.08 107 8.16 107 0 107 C0 71.69 0 36.38 0 0 Z " fill="#FEFEFE" transform="translate(616,627)"/>
<path d="M0 0 C9.29290097 9.80917324 10.57062495 20.43151477 10.4453125 33.41015625 C10.4424826 34.52942001 10.43965271 35.64868378 10.43673706 36.80186462 C10.42561732 40.34718905 10.4005279 43.89225301 10.375 47.4375 C10.3649596 49.85351195 10.35583561 52.2695279 10.34765625 54.68554688 C10.32741367 60.58221029 10.28824876 66.47831646 10.25 72.375 C2.99 72.375 -4.27 72.375 -11.75 72.375 C-11.77578125 69.1471875 -11.8015625 65.919375 -11.828125 62.59375 C-11.86659514 59.44945755 -11.91173947 56.30532633 -11.95751953 53.16113281 C-11.98565367 50.98477951 -12.0069056 48.80832547 -12.02099609 46.63183594 C-12.04253006 43.49361882 -12.08923506 40.35660337 -12.140625 37.21875 C-12.14185364 36.25384644 -12.14308228 35.28894287 -12.14434814 34.2947998 C-12.27393133 28.2466136 -13.16345935 23.37411291 -16.75 18.375 C-21.17099268 15.1597326 -25.44926456 14.6116941 -30.75 15.375 C-35.95120625 17.17541755 -38.15922978 19.5635696 -40.75 24.375 C-42.71430347 29.99481999 -43.08452884 35.10118459 -43.1640625 41.02734375 C-43.18342865 41.92747696 -43.2027948 42.82761017 -43.2227478 43.75502014 C-43.28214471 46.60741945 -43.32876831 49.45986001 -43.375 52.3125 C-43.41321655 54.25587619 -43.45227038 56.19923612 -43.4921875 58.14257812 C-43.58937679 62.88663022 -43.66926108 67.63052581 -43.75 72.375 C-50.68 72.375 -57.61 72.375 -64.75 72.375 C-64.75 46.965 -64.75 21.555 -64.75 -4.625 C-57.82 -4.625 -50.89 -4.625 -43.75 -4.625 C-43.42 -1.655 -43.09 1.315 -42.75 4.375 C-42.2653125 3.90449219 -41.780625 3.43398438 -41.28125 2.94921875 C-29.03655526 -8.42421887 -14.24091541 -8.41508638 0 0 Z " fill="#FEFEFE" transform="translate(587.75,661.625)"/>
<path d="M0 0 C8.06279683 5.46274183 12.73095058 12.77778171 15.640625 22.0390625 C17.44980828 31.91091038 15.52273694 41.26029513 10.3125 49.75 C5.64309916 56.27563179 -0.99904752 61.47600905 -9 63 C-20.5752421 63.92396611 -29.96698893 63.13781271 -39.1484375 55.73046875 C-45.55563581 49.74230662 -49.89980962 42.51079693 -50.43359375 33.6328125 C-50.45695856 32.13038944 -50.45778404 30.62746781 -50.4375 29.125 C-50.42992676 28.33633545 -50.42235352 27.5476709 -50.41455078 26.73510742 C-50.16683279 17.95196779 -47.76997102 11.01487459 -41.69921875 4.53125 C-30.57771142 -5.49088994 -13.00919814 -7.86810609 0 0 Z " fill="#011233" transform="translate(291,651)"/>
<path d="M0 0 C7.26 0 14.52 0 22 0 C22 6.93 22 13.86 22 21 C27.94 21 33.88 21 40 21 C40 26.94 40 32.88 40 39 C34.06 39 28.12 39 22 39 C22.07412174 43.75145924 22.15705269 48.50107697 22.26245117 53.25170898 C22.2956311 54.86651963 22.32368458 56.48144431 22.34643555 58.09643555 C22.38011025 60.42285592 22.43242963 62.74823783 22.48828125 65.07421875 C22.49467117 65.79212082 22.5010611 66.51002289 22.50764465 67.24967957 C22.6350712 71.62934731 23.23750691 74.55065197 26 78 C29.14930893 79.04976964 31.38814456 79.10131595 34.6875 79.0625 C36.440625 79.041875 38.19375 79.02125 40 79 C40.495 87.91 40.495 87.91 41 97 C31.08798483 99.83200433 20.66905523 100.88510191 11.0859375 96.31640625 C5.26350252 92.64194822 2.45310433 87.8722591 0.59106445 81.35302734 C-0.77031744 73.63009513 -0.29951368 65.68918712 -0.1875 57.875 C-0.1724276 56.04167765 -0.15874371 54.20834332 -0.14648438 52.375 C-0.11367723 47.91636744 -0.06203596 43.45831776 0 39 C-4.62 39 -9.24 39 -14 39 C-14 33.06 -14 27.12 -14 21 C-9.38 21 -4.76 21 0 21 C0 14.07 0 7.14 0 0 Z " fill="#FCFCFC" transform="translate(745,636)"/>
<path d="M0 0 C7.26 0 14.52 0 22 0 C22 25.41 22 50.82 22 77 C14.74 77 7.48 77 0 77 C0 51.59 0 26.18 0 0 Z " fill="#FAFAFA" transform="translate(698,657)"/>
<path d="M0 0 C5.19120168 2.74424758 8.6451048 6.81742196 11.1484375 12.0625 C12.7989141 19.864753 12.42435977 26.07195806 8.42578125 33.10546875 C5.73988316 36.83404964 3.24813735 38.92679348 -1.1640625 40.3125 C-7.98679684 41.35039237 -14.24998132 41.45591261 -20.2890625 37.8125 C-25.32154729 33.78276358 -27.71589151 29.81295127 -28.53515625 23.4140625 C-28.8060126 16.8970946 -28.1610491 11.59685959 -24.1640625 6.3125 C-17.54359147 -0.60890153 -9.3118655 -2.95828218 0 0 Z " fill="#011131" transform="translate(470.1640625,675.6875)"/>
<path d="M0 0 C3.20824247 1.49717982 5.72932114 3.27518536 8 6 C9.24283781 9.72851342 9.5280726 13.12746761 9 17 C6.77863437 21.36045847 4.56432971 24.13277421 0 26 C-4.04912559 26.59255496 -7.08310702 26.42788339 -10.8125 24.6875 C-14.01258327 22.21886433 -15.70223538 20.89329386 -17 17 C-17.34253849 11.69065334 -17.54241898 8.25090277 -14 4 C-9.20015421 -0.13009987 -6.08940572 -0.67660064 0 0 Z " fill="#FDFDFD" transform="translate(713,623)"/>
<path d="M0 0 C0.66 0 1.32 0 2 0 C2.33 18.15 2.66 36.3 3 55 C3.99 54.34 4.98 53.68 6 53 C4.46126823 56.71860179 3.52488612 57.35633541 0 60 C0 40.2 0 20.4 0 0 Z " fill="#343A46" transform="translate(361,627)"/>
<path d="M0 0 C-3.17455016 1.10524982 -6.31526262 2.07881565 -9.578125 2.89453125 C-11.39570313 3.34892578 -11.39570313 3.34892578 -13.25 3.8125 C-15.08304687 4.25529297 -15.08304687 4.25529297 -16.953125 4.70703125 C-17.95859375 5.13371094 -18.9640625 5.56039062 -20 6 C-20.66 7.65 -21.32 9.3 -22 11 C-15.565 14.96 -15.565 14.96 -9 19 C-9.66 19.33 -10.32 19.66 -11 20 C-13.15478516 19.01196289 -13.15478516 19.01196289 -15.7890625 17.47265625 C-17.20058594 16.65571289 -17.20058594 16.65571289 -18.640625 15.82226562 C-19.62546875 15.24154297 -20.6103125 14.66082031 -21.625 14.0625 C-22.61757813 13.48564453 -23.61015625 12.90878906 -24.6328125 12.31445312 C-27.09280248 10.88340126 -29.54819042 9.44500804 -32 8 C-31 6 -31 6 -28.47143555 5.11450195 C-24.87912661 4.17059707 -21.28661028 3.23020875 -17.6875 2.3125 C-16.43775391 1.97927734 -15.18800781 1.64605469 -13.90039062 1.30273438 C-12.69962891 0.99271484 -11.49886719 0.68269531 -10.26171875 0.36328125 C-9.15787842 0.07751221 -8.05403809 -0.20825684 -6.91674805 -0.50268555 C-4.13360315 -0.97722025 -2.61643367 -0.95182752 0 0 Z " fill="#0C9BED" transform="translate(434,570)"/>
<path d="M0 0 C0.33 0 0.66 0 1 0 C1.62906449 5.62711111 -0.38341222 8.78945783 -3.5625 13.1875 C-4.48161853 14.50570948 -5.39957862 15.8247274 -6.31640625 17.14453125 C-6.77160645 17.79244629 -7.22680664 18.44036133 -7.69580078 19.10791016 C-10.14376601 22.65933856 -12.36960738 26.34758127 -14.625 30.0234375 C-16 32 -16 32 -18 33 C-16.73813101 29.62070743 -15.2956368 26.6870231 -13.3203125 23.671875 C-12.80339844 22.87136719 -12.28648437 22.07085937 -11.75390625 21.24609375 C-10.67745273 19.59656426 -9.59935631 17.94810561 -8.51953125 16.30078125 C-5.13188283 11.04698408 -2.35083083 5.79442388 0 0 Z " fill="#080811" transform="translate(629,375)"/>
<path d="M0 0 C0 2.97 0 5.94 0 9 C7.26 9 14.52 9 22 9 C22 9.33 22 9.66 22 10 C14.41 10 6.82 10 -1 10 C-1.66 8.35 -2.32 6.7 -3 5 C-3.66 4.67 -4.32 4.34 -5 4 C-1.125 0 -1.125 0 0 0 Z " fill="#000000" transform="translate(482,725)"/>
<path d="M0 0 C7.75 0.75 7.75 0.75 10 3 C9.01 3 8.02 3 7 3 C7 3.66 7 4.32 7 5 C6.34 5 5.68 5 5 5 C5.33 7.31 5.66 9.62 6 12 C2.82781157 8.37464179 1.57097403 4.48849722 0 0 Z " fill="#1198EE" transform="translate(595,259)"/>
<path d="M0 0 C0.99 0.33 1.98 0.66 3 1 C1.72278474 5.99275057 -0.17330957 8.57611908 -4 12 C-4.33 10.68 -4.66 9.36 -5 8 C-3.68 7.34 -2.36 6.68 -1 6 C-1 5.01 -1 4.02 -1 3 C-0.67 2.01 -0.34 1.02 0 0 Z " fill="#0D9AEC" transform="translate(579,552)"/>
<path d="M0 0 C1.32 0.33 2.64 0.66 4 1 C1.36 5.29 -1.28 9.58 -4 14 C-4.33 13.34 -4.66 12.68 -5 12 C-4.0165004 10.26248404 -3.02779688 8.52728244 -1.9921875 6.8203125 C-0.77990129 4.59619686 -0.30362638 2.50491766 0 0 Z " fill="#0B0F1A" transform="translate(341,425)"/>
<path d="M0 0 C0.33 0.66 0.66 1.32 1 2 C1.66 2 2.32 2 3 2 C4.4606285 4.64738916 5 5.89448334 5 9 C6.32 9.33 7.64 9.66 9 10 C7.35 10 5.7 10 4 10 C0 3.375 0 3.375 0 0 Z " fill="#0760E1" transform="translate(421,487)"/>
<path d="M0 0 C-0.99 0 -1.98 0 -3 0 C-3 0.66 -3 1.32 -3 2 C-4.258125 2.185625 -5.51625 2.37125 -6.8125 2.5625 C-7.87404297 2.71912109 -7.87404297 2.71912109 -8.95703125 2.87890625 C-11 3 -11 3 -14 2 C-12.42085985 1.46658816 -10.83645613 0.94874237 -9.25 0.4375 C-8.36828125 0.14746094 -7.4865625 -0.14257812 -6.578125 -0.44140625 C-3.92165684 -1.01697435 -2.52968894 -0.89248371 0 0 Z " fill="#0FA1F1" transform="translate(485,557)"/>
<path d="M0 0 C0.33 0.66 0.66 1.32 1 2 C0.109375 4.34765625 0.109375 4.34765625 -1.25 7.0625 C-1.68828125 7.96097656 -2.1265625 8.85945312 -2.578125 9.78515625 C-4 12 -4 12 -7 13 C-5.35821735 8.22390502 -2.73453298 4.20617096 0 0 Z " fill="#0D9FEB" transform="translate(565,511)"/>
<path d="M0 0 C0 3.3 0 6.6 0 10 C-2 8 -2 8 -3 5 C-3.66 4.67 -4.32 4.34 -5 4 C-1.125 0 -1.125 0 0 0 Z " fill="#010615" transform="translate(482,725)"/>
<path d="M0 0 C0.33 0 0.66 0 1 0 C1.33 2.97 1.66 5.94 2 9 C1.01 9.66 0.02 10.32 -1 11 C-1.02688151 9.35425434 -1.04634123 7.70838587 -1.0625 6.0625 C-1.07410156 5.14597656 -1.08570313 4.22945312 -1.09765625 3.28515625 C-1 1 -1 1 0 0 Z " fill="#181F2F" transform="translate(545,656)"/>
<path d="M0 0 C1.03864166 3.11592499 1.09036928 4.0262656 0 7 C-0.99 7.495 -0.99 7.495 -2 8 C-2.66 7.34 -3.32 6.68 -4 6 C-2.68 4.02 -1.36 2.04 0 0 Z " fill="#0D93EC" transform="translate(615,433)"/>
<path d="M0 0 C0 3.57575896 -1.08840607 5.05295935 -3 8 C-3.68707555 5.50935112 -4 3.62113708 -4 1 C-2.68 0.67 -1.36 0.34 0 0 Z " fill="#109CF0" transform="translate(628,479)"/>
<path d="M0 0 C0.33 0.66 0.66 1.32 1 2 C0.00390625 3.9453125 0.00390625 3.9453125 -1.4375 6.125 C-1.91058594 6.84945313 -2.38367188 7.57390625 -2.87109375 8.3203125 C-3.24363281 8.87460937 -3.61617187 9.42890625 -4 10 C-5.33332095 7.3333581 -4.67102033 5.83319697 -4 3 C-3.01 3 -2.02 3 -1 3 C-0.67 2.01 -0.34 1.02 0 0 Z " fill="#0E61E1" transform="translate(527,447)"/>
<path d="M0 0 C0.66 0.99 1.32 1.98 2 3 C-0.97 5.475 -0.97 5.475 -4 8 C-2.87548273 5.0280615 -1.77706209 2.66559313 0 0 Z " fill="#0D9BEB" transform="translate(602,453)"/>
</svg>
